<?xml version="1.0" encoding="utf-8"?>
<!-- Generator: Adobe Illustrator 17.1.0, SVG Export Plug-In . SVG Version: 6.00 Build 0)  -->
<!DOCTYPE svg PUBLIC "-//W3C//DTD SVG 1.1//EN" "http://www.w3.org/Graphics/SVG/1.1/DTD/svg11.dtd">
<svg version="1.1" id="Слой_1" xmlns="http://www.w3.org/2000/svg" xmlns:xlink="http://www.w3.org/1999/xlink" x="0px" y="0px"
	 viewBox="0 0 20 20" enable-background="new 0 0 20 20" xml:space="preserve">
<g>
	<path fill="#bba45a" stroke="#bba45a" stroke-width="0.12" stroke-miterlimit="10" d="M17.2,7.3c0-0.8-0.6-1.4-1.4-1.4l-3.3,0
		l0.2-2.4l0,0c0-0.7-0.5-2-1.4-2h-0.9L10,3.9L8,7.1C7.8,7.3,7.7,7.5,7.6,7.7C7.4,7.6,7.2,7.5,7,7.5H3.8c-0.6,0-1,0.5-1,1v5
		c0,0.6,0.5,1,1,1H7c0.3,0,0.6-0.2,0.8-0.4c0.3,0.2,0.6,0.3,1,0.3h5.5c0.8,0,1.4-0.6,1.4-1.4c0-0.2,0-0.4-0.1-0.5
		c0.6-0.2,1-0.7,1-1.3c0-0.2-0.1-0.4-0.2-0.6c0.4-0.3,0.7-0.7,0.7-1.2c0-0.4-0.2-0.8-0.5-1C17,8.1,17.2,7.7,17.2,7.3z M7,14H3.8
		c-0.3,0-0.5-0.2-0.5-0.5v-5C3.3,8.2,3.5,8,3.8,8H7C7.2,8,7.3,8,7.4,8.1l0.1,5.5C7.5,13.9,7.3,14,7,14z M16.2,8.5
		c0.3,0.2,0.5,0.5,0.5,0.8c0,0.4-0.2,0.7-0.6,0.9l-0.3,0.1l0.2,0.3c0.1,0.2,0.2,0.4,0.2,0.6c0,0.5-0.4,0.9-0.9,0.9h-0.5l0.3,0.4
		c0.1,0.2,0.2,0.4,0.2,0.6c0,0.5-0.4,0.9-0.9,0.9H8.9c-0.3,0-0.6-0.1-0.8-0.4L7.9,8.1C8,7.9,8.1,7.6,8.4,7.3l2.1-3.3L10.9,2h0.5
		c0.5,0,0.9,1,0.9,1.6L12,6.4l3.8,0c0.5,0,0.9,0.4,0.9,0.9c0,0.3-0.2,0.7-0.5,0.8l-0.4,0.2L16.2,8.5z"/>
</g>
</svg>
