<?xml version="1.0" encoding="utf-8"?>
<!-- Generator: Adobe Illustrator 17.1.0, SVG Export Plug-In . SVG Version: 6.00 Build 0)  -->
<!DOCTYPE svg PUBLIC "-//W3C//DTD SVG 1.1//EN" "http://www.w3.org/Graphics/SVG/1.1/DTD/svg11.dtd">
<svg version="1.1" id="Слой_1" xmlns="http://www.w3.org/2000/svg" xmlns:xlink="http://www.w3.org/1999/xlink" x="0px" y="0px"
	 viewBox="0 0 20 20" enable-background="new 0 0 20 20" xml:space="preserve">
<path fill="#bba45a" d="M9.2,13.2c-1.5,0-2.7-0.4-2.7-0.4l-0.1,0l0-0.1c0-0.2-1.3-4.1,0.8-6.6c2.8-3.3,7.4-3.4,7.9-3.4h0.3l0,0.3
	c0,0.2,0.5,5.7-1.9,8.5C12.6,12.6,11.1,13.2,9.2,13.2z M6.9,12.2c0.4,0.1,1.3,0.4,2.3,0.4c1.6,0,2.9-0.5,3.9-1.6
	c1.9-2.2,1.8-6.5,1.7-7.7c-1.1,0-4.9,0.4-7.2,3.2C6,8.4,6.7,11.5,6.9,12.2z"/>
<path fill="#bba45a" d="M4.8,13.5c-0.1,0-0.3-0.1-0.3-0.2c-0.1-0.2,0-0.4,0.2-0.4c0,0,2.1-0.8,3.6-2.2c1.4-1.2,2.9-3.6,2.9-3.6
	C11.3,7,11.5,6.9,11.6,7s0.2,0.3,0.1,0.4c-0.1,0.1-1.5,2.5-3,3.8c-1.6,1.4-3.7,2.2-3.8,2.3C4.9,13.5,4.8,13.5,4.8,13.5z"/>
</svg>
