<?xml version="1.0" encoding="utf-8"?>
<!-- Generator: Adobe Illustrator 17.1.0, SVG Export Plug-In . SVG Version: 6.00 Build 0)  -->
<!DOCTYPE svg PUBLIC "-//W3C//DTD SVG 1.1//EN" "http://www.w3.org/Graphics/SVG/1.1/DTD/svg11.dtd">
<svg version="1.1" id="Слой_1" xmlns="http://www.w3.org/2000/svg" xmlns:xlink="http://www.w3.org/1999/xlink" x="0px" y="0px"
	 viewBox="0 0 400 400" enable-background="new 0 0 400 400" xml:space="preserve">
<path d="M274.5,135.2h-10.8v-36c0-37-28.8-67.1-65.8-67.1s-65.8,30.1-65.8,67.1v36h-4.8c-10.3,0-20.7,6.8-20.7,17.1v115.5
	c0,10.3,10.4,20.2,20.7,20.2h147.1c10.3,0,18.9-9.9,18.9-20.2V152.2C293.3,141.9,284.8,135.2,274.5,135.2z M149.1,99.2
	c0-26.7,22.1-48.4,48.8-48.4s48.8,21.7,48.8,48.4v36h-97.6V99.2z M210.4,212.4l3.1,37.3h-26.1l3.1-37.9c-5.2-3.4-8.7-10.4-8.7-17.1
	c0-10.5,8.5-19.6,19.1-19.6S220,184.5,220,195C220,202.1,216.1,209.1,210.4,212.4z"/>
</svg>
